# xmcd
#
# Track frame offsets:
#	150
#	12073
#	28621
#	47148
#	60690
#	69328
#	83343
#	97306
#	110313
#	132678
#	147181
#	163431
#	186154
#	203549
#	214311
#	241309
#	259772
#	273110
#	286535
#	298597
#	315299
#
# Disc length: 4435
#
# Revision: 3
# Processed by: cddbd v1.5.1PL0 Copyright (c) Steve Scherf et al.
# Submitted via: CDex 1.30Release
# Normalized: r2:TDELIM( - )
#
DISCID=2e115115
DTITLE=Blues Planet - The best of Hot Blues
DYEAR=1999
DGENRE=Blues
TTITLE0=Bob Margolin - Rip It Up
TTITLE1=Lonnie Mack - Double Whammy
TTITLE2=Ronnie Earl - Harvard Square Stomp
TTITLE3=C.J. Chenier - Zydeco Cha Cha
TTITLE4=Roy Buchanan - Hawaiian Punch
TTITLE5=Duke Robilliard - Midnight Connon Ball
TTITLE6=Tinsley Ellis - Side Tracked
TTITLE7=Luther Allison - BackTrack
TTITLE8=Jimmy Dawkins - Gittar Rapp
TTITLE9=Omar and The Howlers - Dangerous Man
TTITLE10=Koko Taylor - Beer Bottle Boogie
TTITLE11=Dave Hole - Tore Down
TTITLE12=John Campbell - Person to Person
TTITLE13=Little Mike - Taylor Made
TTITLE14=Robben Ford - Step On It
TTITLE15=Ron Levy's - Mo Chain Smokin'
TTITLE16=Screamin' Jay Hawkins - Call The Plumber
TTITLE17=Pinetop Perkins - The Hucklebuck
TTITLE18=Katie Webster - C. Q. Boogie
TTITLE19=Peter Green - You Won't See Me
TTITLE20=Otis Rush - I Miss You So
EXTD=YEAR: 1999 ID3G:   0
EXTT0=
EXTT1=
EXTT2=
EXTT3=
EXTT4=
EXTT5=
EXTT6=
EXTT7=
EXTT8=
EXTT9=
EXTT10=
EXTT11=
EXTT12=
EXTT13=
EXTT14=
EXTT15=
EXTT16=
EXTT17=
EXTT18=
EXTT19=
EXTT20=
PLAYORDER=
